<?xml version="1.0" encoding="utf-8"?>
<svg version="1.1" xmlns="http://www.w3.org/2000/svg" xmlns:xlink="http://www.w3.org/1999/xlink" x="0px" y="0px" viewBox="0 0 1000 1000" enable-background="new 0 0 1000 1000" xml:space="preserve">
<metadata>Add person</metadata>
<g><g transform="translate(0.000000,511.000000) scale(0.100000,-0.100000)"><path d="M4178.5,5003.1c-259.8-47.4-389.7-86.6-556.7-167c-167-80.4-222.7-119.6-371.2-272.2c-350.5-352.6-474.3-750.6-474.3-1517.6c0-379.4,24.7-622.7,92.8-888.7c101-398,247.4-678.4,472.2-905.2c167-167,301-251.6,538.2-332c218.6-74.2,614.5-92.8,866-41.2C5514.7,1038,5960.1,1739,6007.5,2871c22.7,558.8-47.4,995.9-212.4,1338.2c-179.4,369.1-519.6,637.1-946.4,746.4C4689.9,4994.9,4291.9,5023.8,4178.5,5003.1z"/><path d="M4215.6,349.2c-171.1-49.5-255.7-129.9-278.4-270.1c-20.6-132,70.1-379.4,218.6-598l57.7-84.6l-185.6-532c-103.1-292.8-191.8-523.8-200-515.5c-12.4,14.4-503.1,1544.4-612.4,1909.4c-14.4,53.6-39.2,96.9-51.6,96.9c-66,0-1282.5-676.3-1593.9-886.7c-189.7-127.9-381.5-336.1-461.9-499c-125.8-255.7-132-311.4-140.2-1474.3l-10.3-1057.8h2629h2627l14.4,140.2c78.4,762.9,680.4,1371.2,1424.8,1439.3l154.6,14.4v200c0,220.6-43.3,507.3-96.9,643.3c-59.8,156.7-214.4,367-348.5,478.4C7112.7-442.6,5630.1,398.7,5595.1,355.4c-4.1-6.2-150.5-461.9-323.7-1016.6c-175.3-552.6-323.7-998-332-989.8c-8.2,10.3-96.9,247.4-195.9,529.9c-158.8,455.7-175.3,519.6-150.5,556.7c183.5,288.7,245.4,439.2,245.4,595.9c0,107.2-30.9,177.3-103.1,237.1C4630.1,355.4,4378.5,394.6,4215.6,349.2z"/><path d="M7488-2384.9c-332-94.9-622.7-338.2-769.1-641.3c-103.1-218.6-136.1-381.5-123.7-614.5c33-525.8,377.3-954.7,892.8-1109.4c195.9-59.8,515.5-51.5,707.2,18.6c214.5,74.2,358.8,169.1,509.3,327.9c457.8,482.5,449.5,1228.9-20.6,1697c-160.8,160.8-356.7,276.3-558.8,327.9C7956.1-2335.5,7648.8-2337.5,7488-2384.9z M7954-2776.7c59.8-59.8,59.8-61.9,59.8-317.6V-3352l270.1-8.3l270.1-6.2l59.8-68c66-74.2,74.3-142.3,30.9-228.9c-45.3-86.6-113.4-105.2-383.5-105.2h-247.4v-257.8c0-292.8-18.6-342.3-134-381.5c-82.5-26.8-200,12.4-235.1,78.3c-12.3,24.8-22.7,154.6-22.7,301.1v259.8h-247.4c-270.1,0-338.2,18.6-383.5,105.2c-43.3,86.6-35.1,154.6,30.9,228.9l59.8,68l270.1,6.2l270.1,8.3v257.7c0,255.7,0,257.8,59.8,317.6C7766.4-2694.2,7869.5-2694.2,7954-2776.7z"/></g></g>
</svg>
